<svg xmlns="http://www.w3.org/2000/svg" viewBox="0 0 64 64">
  <defs>
    <radialGradient id="g" cx="50%" cy="40%" r="50%">
      <stop offset="0%" stop-color="#fff" stop-opacity="1"/>
      <stop offset="100%" stop-color="#ccc" stop-opacity="0.9"/>
    </radialGradient>
    <filter id="glow">
      <feGaussianBlur stdDeviation="1.5" result="blur"/>
      <feMerge><feMergeNode in="blur"/><feMergeNode in="SourceGraphic"/></feMerge>
    </filter>
  </defs>
  <!-- Hood/head -->
  <path d="M32 6 C18 6 12 16 12 24 L12 28 C12 28 16 26 20 27 L20 22 C20 16 24 12 32 12 C40 12 44 16 44 22 L44 27 C48 26 52 28 52 28 L52 24 C52 16 46 6 32 6Z" fill="url(#g)" filter="url(#glow)"/>
  <!-- Face slit -->
  <rect x="18" y="24" width="28" height="8" rx="2" fill="#0a0a0f"/>
  <!-- Eyes -->
  <ellipse cx="25" cy="28" rx="3.5" ry="2.5" fill="#8b5cf6"/>
  <ellipse cx="25" cy="28" rx="2" ry="1.5" fill="#c084fc"/>
  <ellipse cx="25" cy="27.5" rx="1" ry="0.8" fill="#fff" opacity="0.8"/>
  <ellipse cx="39" cy="28" rx="3.5" ry="2.5" fill="#8b5cf6"/>
  <ellipse cx="39" cy="28" rx="2" ry="1.5" fill="#c084fc"/>
  <ellipse cx="39" cy="27.5" rx="1" ry="0.8" fill="#fff" opacity="0.8"/>
  <!-- Ghost body -->
  <path d="M16 32 C16 32 14 34 14 38 L14 52 C14 54 16 54 18 52 C20 50 22 54 24 54 C26 54 26 50 28 52 C30 54 32 54 34 52 C36 50 38 54 40 54 C42 54 42 50 44 52 C46 54 48 54 48 52 C50 54 50 52 50 52 L50 38 C50 34 48 32 48 32 Z" fill="url(#g)" opacity="0.85" filter="url(#glow)"/>
  <!-- Wrap/scarf -->
  <path d="M12 28 C12 28 16 33 32 33 C48 33 52 28 52 28 L52 31 C52 31 46 35 32 35 C18 35 12 31 12 31Z" fill="url(#g)" opacity="0.95"/>
  <!-- Scarf tail -->
  <path d="M48 30 C50 32 54 34 56 38 C57 40 56 44 54 46" stroke="url(#g)" stroke-width="3" fill="none" opacity="0.7" stroke-linecap="round"/>
</svg>
